<?xml version="1.0" encoding="UTF-8"?>
<svg id="Layer_2" xmlns="http://www.w3.org/2000/svg" xmlns:xlink="http://www.w3.org/1999/xlink" version="1.1" viewBox="0 0 3565 2648.2">
  <!-- Generator: Adobe Illustrator 29.8.3, SVG Export Plug-In . SVG Version: 2.1.1 Build 3)  -->
  <defs>
    <style>
      .st0, .st1 {
        fill: none;
      }

      .st1 {
        stroke: #66bfad;
        stroke-miterlimit: 10;
      }

      .st2 {
        clip-path: url(#clippath);
      }
    </style>
    <clipPath id="clippath">
      <rect class="st0" x="2193.7" width="1371.3" height="965.9"/>
    </clipPath>
  </defs>
  <g id="Layer_1-2">
    <g class="st2">
      <g>
        <rect class="st0" x="2193.7" width="1371.3" height="965.9"/>
        <g>
          <path class="st1" d="M2622.2-147.8l285.5,469.3c70.1,115.2,204,175.2,336.7,150.7L5405.4,73.5c78.8-14.5,143.6-70.6,169.3-146.5l171.8-507.3c37.6-111.1-18.1-232.3-127-276l-2014.2-809.4c-101.1-40.7-216.8-1.5-272.5,92.2l-711.8,1197.9c-41.8,70.3-41.3,158,1.2,227.8h0Z"/>
          <path class="st1" d="M3184.6,370.6c13.6,0,27.3-1.2,40.7-3.6L5385.7-31.7c40.8-7.5,74.4-36.6,87.7-75.9l171.6-506.6c19.5-57.6-9.4-120.4-65.8-143l-2013.4-809.1c-13.5-5.4-27.7-8.2-42.1-8.3-40.5-.2-78.4,21.3-99.1,56.1l-711.5,1197.3c-21.7,36.5-21.5,81.8.6,118.1l285.2,468.8c19.5,32,47,58.6,79.7,76.9,32.3,18.2,69,27.8,105.9,28h0Z"/>
          <path class="st1" d="M3239.9,240.2c13.2,0,26.5-1.1,39.5-3.5l2020.5-372.8c38.4-7.1,70.1-34.5,82.6-71.5l116.7-344.7c18.3-54.2-8.9-113.3-61.9-134.7l-1826.9-734.2c-12.8-5.1-26.1-7.8-39.6-7.8-38.1-.2-73.9,20-93.3,52.8l-628.4,1057.5c-20.4,34.4-20.2,77,.6,111.1l210.4,345.8c18.9,31,45.6,56.8,77.2,74.6,31.4,17.6,66.9,27,102.7,27.2h0Z"/>
          <path class="st1" d="M3276.4,115.4c10.4,0,21-.9,31.4-2.8l1928.6-355.8c22.9-4.2,41.7-20.5,49.2-42.6l80.7-238.4c10.9-32.3-5.3-67.5-36.9-80.2l-1704.4-685c-7.6-3.1-15.6-4.6-23.5-4.7-17.8,0-41.8,8.1-55.6,31.5l-573.9,965.8c-12.2,20.5-12,45.8.3,66.2l161.3,265.2c30.2,49.6,84.8,80.5,142.8,80.8h0Z"/>
        </g>
      </g>
    </g>
  </g>
</svg>