<?xml version="1.0" encoding="UTF-8"?>
<svg id="Layer_2" xmlns="http://www.w3.org/2000/svg" xmlns:xlink="http://www.w3.org/1999/xlink" version="1.1" viewBox="0 0 3987.6 2160.3">
  <!-- Generator: Adobe Illustrator 29.8.3, SVG Export Plug-In . SVG Version: 2.1.1 Build 3)  -->
  <defs>
    <style>
      .st0, .st1 {
        fill: none;
      }

      .st1 {
        stroke: #66bfad;
        stroke-miterlimit: 10;
        stroke-width: 2px;
      }

      .st2 {
        clip-path: url(#clippath);
      }
    </style>
    <clipPath id="clippath">
      <rect class="st0" y="8.6" width="3054.6" height="2151.7"/>
    </clipPath>
  </defs>
  <g id="Layer_1-2">
    <g class="st2">
      <g>
        <rect class="st0" y="8.6" width="3054.6" height="2151.7"/>
        <g>
          <path class="st1" d="M-5755.3,2871.6l636,1045.4c156.1,256.6,454.5,390.2,749.9,335.7L444.4,3364.6c175.6-32.4,319.9-157.3,377.1-326.4l382.7-1130c83.8-247.6-40.3-517.5-282.8-614.9L-3565.3-509.8c-225.3-90.6-483-3.4-607,205.4l-1585.6,2668.5c-93.1,156.6-92.1,351.9,2.6,507.5h0Z"/>
          <path class="st1" d="M-4502.7,4026.3c30.3.1,60.8-2.6,90.7-8.1L400.6,3130.3c90.9-16.8,165.8-81.6,195.4-169.1l382.1-1128.5c43.4-128.2-21-268.2-146.6-318.7L-3653.3-288.3c-30.1-12.1-61.7-18.3-93.8-18.5-90.1-.4-174.7,47.4-220.8,124.9l-1584.8,2667.1c-48.3,81.4-47.8,182.1,1.4,263l635.3,1044.2c43.4,71.3,104.8,130.6,177.5,171.4,72,40.4,153.6,62,236,62.4h0Z"/>
          <path class="st1" d="M-4379.4,3736c29.3.1,58.9-2.5,88-7.9L209.3,2897.8c85.6-15.8,156-76.8,184-159.2l260-767.8c40.9-120.7-19.7-252.4-138-299.9L-3554.1,35.4c-28.4-11.4-58.1-17.3-88.2-17.4-84.9-.4-164.6,44.7-207.9,117.6l-1399.8,2355.8c-45.5,76.6-45,171.5,1.3,247.6l468.7,770.4c42.1,69.1,101.5,126.6,172,166.1,69.9,39.2,148.9,60.1,228.7,60.5h0Z"/>
          <path class="st1" d="M-4298,3458c23.3.1,46.8-2,69.9-6.3L68,2659.2c50.9-9.4,92.9-45.7,109.5-94.8l179.8-531c24.3-71.9-11.7-150.3-82.2-178.6L-3521.5,329c-17-6.8-34.6-10.4-52.4-10.4-39.7-.2-93.1,18.1-123.9,70.1l-1278.4,2151.4c-27.1,45.6-26.8,102.1.8,147.4l359.3,590.6c67.2,110.4,189,179.3,318,179.9h0Z"/>
        </g>
      </g>
    </g>
  </g>
</svg>