<svg width="64" height="64" viewBox="0 0 64 64" fill="none" xmlns="http://www.w3.org/2000/svg">
<path d="M11 29.6336C13 21.6336 15 41.6336 19 25.6336C23 9.63363 25 35.6336 29 19.6336C33 3.63363 37 27.6336 39 19.6336" stroke="#22D3EE" stroke-width="2" stroke-linecap="round"/>
<path d="M25 32H53M53 32L49 28M53 32L49 36" stroke="#22D3EE" stroke-width="2" stroke-linecap="round" stroke-linejoin="round"/>
<path d="M32 60C47.464 60 60 47.464 60 32C60 16.536 47.464 4 32 4C16.536 4 4 16.536 4 32C4 47.464 16.536 60 32 60Z" stroke="#22D3EE" stroke-width="2"/>
<path d="M48 16L56 8M56 56L48 48M16 16L8 8M8 56L16 48" stroke="#22D3EE" stroke-width="2"/>
</svg>
